<?xml version="1.0" encoding="UTF-8"?>
<svg width="440px" height="341px" viewBox="0 0 440 341" version="1.1" xmlns="http://www.w3.org/2000/svg" xmlns:xlink="http://www.w3.org/1999/xlink">
    <title>Group 3</title>
    <g id="Page-1" stroke="none" stroke-width="1" fill="none" fill-rule="evenodd">
        <g id="MacBook-Air-13&quot;" transform="translate(-926.000000, -503.000000)">
            <g id="Group-3" transform="translate(946.000000, 523.000000)">
                <path d="M198.019802,81.4291306 L198.019802,300 C132.013201,263.249685 66.0710938,244.874527 0.193479483,244.874527 C0.0988333066,106.262567 0.0343401455,24.6377246 0,0 C66.0066007,0 132.013201,27.1430435 198.019802,81.4291306 Z" id="Path" stroke="#979797"></path>
                <path d="M400,81.4291306 L400,300 C333.993399,263.249685 268.051292,244.874527 202.173678,244.874527 C202.079031,106.262567 202.014538,24.6377246 201.980198,0 C267.986799,0 333.993399,27.1430435 400,81.4291306 Z" id="Path" stroke="#979797" transform="translate(300.990099, 150.000000) scale(-1, 1) translate(-300.990099, -150.000000) "></path>
                <path d="M198.019802,81.4291306 L198.019802,300 C132.013201,263.249685 66.0710938,244.874527 0.193479483,244.874527 C0.0988333066,106.262567 0.0343401455,24.6377246 0,0 C66.0066007,0 132.013201,27.1430435 198.019802,81.4291306 Z" id="Path" stroke="#EA323C" stroke-width="40" stroke-linejoin="round"></path>
                <path d="M400,81.4291306 L400,300 C333.993399,263.249685 268.051292,244.874527 202.173678,244.874527 C202.079031,106.262567 202.014538,24.6377246 201.980198,0 C267.986799,0 333.993399,27.1430435 400,81.4291306 Z" id="Path" stroke="#EA323C" stroke-width="40" stroke-linejoin="round" transform="translate(300.990099, 150.000000) scale(-1, 1) translate(-300.990099, -150.000000) "></path>
            </g>
        </g>
    </g>
</svg>